# xmcd
#
# Track frame offsets:
#	150
#	28800
#	49650
#	67800
#	88650
#	105900
#	123150
#	142050
#	158550
#	176850
#	194700
#	214800
#	234750
#	256650
#	270000
#	287100
#	304200
#	321750
#	339300
#
# Disc length: 4756 seconds
#
# Revision: 0
# Processed by: cddbd v1.5.2PL0 Copyright (c) Steve Scherf et al.
# Submitted via: EasyCDDAExtractor 16.0.6.1
#
DISCID=05129213
DTITLE=IZIČ - Ulica brestov
DYEAR=2013
DGENRE=Rap
TTITLE0=Ulica brestov
TTITLE1=Povsod jih vidm
TTITLE2=Duh
TTITLE3=Vračam se
TTITLE4=Puši kurac
TTITLE5=Svinja
TTITLE6=Slišu sm
TTITLE7=Dok duša gine
TTITLE8=Zgodba iz bloka
TTITLE9=R.I.P.
TTITLE10=Muzika za kruzanje feat. Bina
TTITLE11=Porno rap
TTITLE12=IziČ
TTITLE13=Uspavanka
TTITLE14=Ljubezenska pesem
TTITLE15=Pijanec
TTITLE16=1380
TTITLE17=Pršu bo dan
TTITLE18=Predn grem
EXTD=
EXTT0=
EXTT1=
EXTT2=
EXTT3=
EXTT4=
EXTT5=
EXTT6=
EXTT7=
EXTT8=
EXTT9=
EXTT10=
EXTT11=
EXTT12=
EXTT13=
EXTT14=
EXTT15=
EXTT16=
EXTT17=
EXTT18=
PLAYORDER=
